# xmcd
#
# Track frame offsets:
#	150
#	19228
#	39272
#	54349
#	65029
#	85255
#	99131
#	114936
#	126927
#	144429
#	159745
#	177051
#	189980
#	204265
#	221404
#	232136
#	247550
#	264642
#	288164
#	306263
#	322643
#	336618
#
# Disc length: 4703
#
# Revision: 2
# Processed by: cddbd v1.5.1PL0 Copyright (c) Steve Scherf et al.
# Submitted via: audiograbber 1.83.01
# Normalized: r1:DSETVAR1
#
DISCID=2b125d16
DTITLE=Various Artist - Country Radio - 1999 - 06 - June
DYEAR=1999
DGENRE=Country
TTITLE0=Faith Hill - The Secret Of Life
TTITLE1=Alan Jackson - Little Man
TTITLE2=Jo Dee Messina - Lesson In Leavin'
TTITLE3=Dwight Yoakam - Crazy Little Thing Called Love
TTITLE4=Tim McGraw - Please Remember Me
TTITLE5=Neal McCoy - The Girls Of Summer
TTITLE6=Sawyer Brown - I'm In Love With Her
TTITLE7=Deryl Dodd - John Roland Wood
TTITLE8=Matt King - From Your Knees
TTITLE9=George Jones - Choices
TTITLE10=Farmer's Daughter - Let It Ride
TTITLE11=The Warren Brothers - She Wants To Rock
TTITLE12=Kenny Rogers - The Greatest
TTITLE13=Billy Ray Cyrus - Give My Heart To You
TTITLE14=Julie Reeves - Trouble Is A Woman
TTITLE15=Monte Warden - It's Only Love
TTITLE16=Mark Chesnutt - This Heartache Never Sleeps
TTITLE17=Claudia Church - Home In My Heart (North Carolina)
TTITLE18=Joel Feeney - She Ain't Gonna Cry
TTITLE19=Susan Ashton - You're Lucky I Love You
TTITLE20=Collin Raye - Start Over Georgia
TTITLE21=Sawyer Brown - Drive Me Wild
EXTD=
EXTT0=
EXTT1=
EXTT2=
EXTT3=
EXTT4=
EXTT5=
EXTT6=
EXTT7=
EXTT8=
EXTT9=
EXTT10=
EXTT11=
EXTT12=
EXTT13=
EXTT14=
EXTT15=
EXTT16=
EXTT17=
EXTT18=
EXTT19=
EXTT20=
EXTT21=
PLAYORDER=
